<svg xmlns="http://www.w3.org/2000/svg" xml:space="preserve" width="479.154" height="479.154" style="enable-background:new 0 0 479.154 479.154"><path d="M372.525 444.712c6.296-4.845 11.629-5.326 17.925-5.326 6.292 0 9.69-3.398 9.69-10.175 0-6.784 11.621-.489 7.742-9.689-3.879-9.201-17.433-35.358-25.183-58.128-7.742-22.763-18.883-67.325-28.092-89.113-9.197-21.797-60.54-111.4-68.283-131.263-7.75-19.861 10.348-55.697 10.348-55.697s6.043-33.781 7.137-37.964c.401-1.533-.941-3.212-2.781-4.733 2.325-1.477 3.964-3.955 3.964-6.909a8.311 8.311 0 0 0-.722-3.338c1.006-1.373 1.72-2.982 1.72-4.817 0-.024-.017-.05-.017-.074 6.532-.344 4.164-2.871 12.916-7.918 9.445-5.452.729-3.998 1.459-9.806.729-5.811-3.267-6.538-5.811-9.085-2.545-2.541-5.45 2.907-5.45 2.907-14.888-.733-2.541 11.257-9.807 10.195-3.41-.501-4.348 2.53-3.559 5.856-3.635.92-6.371 4.046-6.371 7.939 0 1.192.276 2.316.721 3.336-1.002 1.37-1.715 2.981-1.715 4.821 0 .062.027.108.027.172-1.915-.165-3.915.617-4.98 4.144 0 0-5.566-3.557-7.995 2.817 0 0-7.991-.399-9.201 6.628 0 0-22.024-.457-26.633 5.769-4.606-6.226-26.637-5.769-26.637-5.769-1.206-7.027-9.199-6.628-9.199-6.628-2.426-6.382-7.993-2.817-7.993-2.817-1.068-3.526-3.07-4.3-4.981-4.144 0-.064.03-.11.03-.172 0-1.839-.717-3.442-1.721-4.821a8.158 8.158 0 0 0 .724-3.336c0-3.893-2.747-7.019-6.366-7.922.793-3.329-.142-6.36-3.559-5.853-7.259 1.066 5.087-10.92-9.804-10.201 0 0-2.905-5.446-5.448-2.905-2.545 2.545-6.538 3.266-5.811 9.085.733 5.807-7.991 4.358 1.453 9.804 8.756 5.049 6.398 7.576 12.922 7.92 0 .022-.014.05-.014.072 0 1.83.711 3.438 1.717 4.819a8.223 8.223 0 0 0-.721 3.338c0 2.952 1.633 5.432 3.963 6.909-1.843 1.521-3.186 3.2-2.787 4.733 1.1 4.173 7.137 37.964 7.137 37.964s18.105 35.844 10.353 55.699c-7.746 19.861-59.087 109.465-68.286 131.261-9.205 21.789-20.344 66.359-28.09 89.113-7.747 22.771-21.313 48.919-25.185 58.128-3.879 9.197 7.747 2.905 7.747 9.69 0 6.776 3.394 10.17 9.691 10.17 6.294 0 11.626.485 17.919 5.33 6.298 4.846 12.106 9.201 19.865 7.751 7.747-1.455 37.295 6.776 39.712 12.587 2.418 5.811 26.635 20.27 37.776 11.141 9.706-7.95 30.412-10.135 35.602-10.563 5.189.429 25.896 2.613 35.602 10.563 11.141 9.129 35.357-5.33 37.774-11.141 2.412-5.811 31.967-14.042 39.718-12.587 7.742 1.442 13.552-2.922 19.848-7.767zM296.521 21.85c1.311 2.787 3.759 5.202 7.069 5.558 0 .054.04.101.04.165 0 1.012-.317 1.914-.77 2.753-1.519-1.75-3.695-2.91-6.191-2.91-1.764 0-3.314.675-4.665 1.625-.12-.479-.297-.944-.297-1.46 0-2.89 2.092-5.182 4.814-5.731zm4.8 10.315c-1.03.81-2.248 1.365-3.659 1.365-1.923 0-3.555-.974-4.645-2.392 1.019-.812 2.244-1.369 3.651-1.369 1.916 0 3.556.974 4.653 2.396zm-9.854.816c1.527 1.753 3.703 2.913 6.195 2.913 1.771 0 3.314-.677 4.669-1.625.124.479.301.94.301 1.461 0 2.438-1.487 4.528-3.587 5.448-2.869-1.917-5.951-3.312-5.951-3.312s-.926-.733-2.216-1.31c-.044-.285-.168-.529-.168-.818 0-1.024.316-1.924.757-2.757zm-115.945-5.408c0-.058.034-.11.034-.165 3.306-.364 5.763-2.771 7.073-5.558 2.713.549 4.811 2.841 4.811 5.723 0 .519-.172.982-.299 1.46-1.351-.941-2.896-1.625-4.663-1.625-2.495 0-4.672 1.163-6.193 2.91-.44-.832-.763-1.733-.763-2.745zm10.608 3.565c-1.09 1.418-2.723 2.392-4.646 2.392-1.399 0-2.629-.555-3.653-1.365 1.092-1.422 2.725-2.396 4.648-2.396 1.405 0 2.639.557 3.651 1.369zm2.141 5.418c-1.288.585-2.22 1.31-2.22 1.31s-3.078 1.395-5.945 3.312c-2.1-.919-3.586-3.009-3.586-5.448 0-.521.176-.982.298-1.461 1.353.94 2.897 1.625 4.665 1.625 2.494 0 4.668-1.16 6.195-2.913.443.833.757 1.745.757 2.757.001.281-.121.533-.164.818z"/></svg>